<svg xmlns="http://www.w3.org/2000/svg" viewBox="0 0 200 240" width="200" height="240">
  <defs>
    <linearGradient id="grad" x1="0" y1="0" x2="0" y2="1">
      <stop offset="0%" stop-color="#e8f5e9"/>
      <stop offset="50%" stop-color="#e8f5e9"/>
      <stop offset="50%" stop-color="#6BA053"/>
      <stop offset="100%" stop-color="#6BA053"/>
    </linearGradient>
  </defs>
  <rect x="0" y="0" width="200" height="240" fill="#ffffff"/>
  <path d="M50 60 L50 40 Q50 20 70 20 L80 20 L85 10 L115 10 L120 20 L130 20 Q150 20 150 40 L150 60 L180 80 L180 120 L160 100 L160 180 Q160 200 150 200 L50 200 Q40 200 40 180 L40 100 L20 120 L20 80 L50 60 Z" fill="url(#grad)" stroke="#7a7a7a" stroke-width="1.5"/>
  <text x="100" y="125" text-anchor="middle" font-family="Arial, sans-serif" font-size="18" font-weight="bold" fill="#ffffff">GPCQM</text>
</svg>

